<svg width="730" height="155" viewBox="0 0 730 155" fill="none" xmlns="http://www.w3.org/2000/svg">
<path d="M234.52 7.30006C235.86 7.97006 236.64 9.01006 236.86 10.4101C237.07 11.8201 236.69 13.1001 235.71 14.2601C235.04 15.2401 234.18 15.7701 233.15 15.8601C232.11 15.9501 231.04 15.7201 229.94 15.1701C228.23 14.2501 226.38 13.5201 224.4 12.9701C222.42 12.4201 220.36 12.1501 218.22 12.1501C214.74 12.1501 211.61 12.7301 208.83 13.8901C206.05 15.0501 203.66 16.6701 201.64 18.7401C199.63 20.8201 198.08 23.2901 197.02 26.1601C195.95 29.0301 195.42 32.2001 195.42 35.6801C195.42 39.5301 196 42.9301 197.16 45.8901C198.32 48.8501 199.92 51.3501 201.97 53.4001C204.01 55.4501 206.43 56.9701 209.2 57.9801C211.98 58.9901 214.98 59.4901 218.22 59.4901C220.29 59.4901 222.32 59.2501 224.31 58.7601C226.29 58.2701 228.17 57.5401 229.94 56.5601C231.04 56.0101 232.11 55.8101 233.15 55.9601C234.19 56.1101 235.07 56.6501 235.81 57.5601C236.79 58.8401 237.15 60.1601 236.91 61.5001C236.67 62.8401 235.9 63.8201 234.62 64.4301C233.09 65.2901 231.41 66.0301 229.58 66.6701C227.75 67.3101 225.89 67.8001 223.99 68.1301C222.1 68.4601 220.17 68.6301 218.22 68.6301C213.82 68.6301 209.66 67.9001 205.72 66.4301C201.78 64.9701 198.3 62.8301 195.28 60.0201C192.26 57.2101 189.86 53.7601 188.09 49.6701C186.32 45.5801 185.43 40.9101 185.43 35.6601C185.43 30.9601 186.25 26.6301 187.9 22.6601C189.55 18.6901 191.85 15.2401 194.81 12.3101C197.77 9.38006 201.23 7.11006 205.2 5.49006C209.17 3.87006 213.5 3.06006 218.2 3.06006C221.13 3.06006 223.98 3.43006 226.76 4.16006C229.54 4.89006 232.12 5.93006 234.5 7.27006L234.52 7.30006Z" fill="#222222"/>
<path d="M292.39 43.66C292.39 48.54 291.32 52.86 289.18 56.62C287.04 60.37 284.14 63.32 280.48 65.46C276.82 67.6 272.7 68.67 268.12 68.67C263.54 68.67 259.42 67.6 255.76 65.46C252.1 63.32 249.18 60.38 247.01 56.62C244.84 52.87 243.76 48.55 243.76 43.66C243.76 38.77 244.84 34.37 247.01 30.61C249.18 26.86 252.09 23.9 255.76 21.73C259.42 19.56 263.54 18.48 268.12 18.48C272.7 18.48 276.82 19.56 280.48 21.73C284.14 23.9 287.04 26.86 289.18 30.61C291.32 34.36 292.39 38.71 292.39 43.66ZM283.23 43.66C283.23 40.3 282.56 37.39 281.22 34.91C279.88 32.44 278.06 30.5 275.77 29.1C273.48 27.7 270.93 26.99 268.12 26.99C265.31 26.99 262.75 27.69 260.43 29.1C258.11 30.51 256.28 32.44 254.94 34.91C253.6 37.38 252.93 40.3 252.93 43.66C252.93 47.02 253.6 49.77 254.94 52.27C256.28 54.77 258.11 56.73 260.43 58.13C262.75 59.54 265.31 60.24 268.12 60.24C270.93 60.24 273.48 59.54 275.77 58.13C278.06 56.73 279.88 54.77 281.22 52.27C282.56 49.77 283.23 46.9 283.23 43.66Z" fill="#222222"/>
<path d="M327.551 18.4697C331.881 18.4697 335.241 19.3697 337.621 21.1697C340.001 22.9697 341.661 25.3797 342.611 28.4097C343.561 31.4297 344.031 34.8097 344.031 38.5297V63.0697C344.031 64.4097 343.591 65.5297 342.701 66.4097C341.811 67.2897 340.731 67.7397 339.451 67.7397C338.171 67.7397 336.991 67.2997 336.111 66.4097C335.221 65.5297 334.781 64.4097 334.781 63.0697V38.6197C334.781 36.4197 334.471 34.4497 333.861 32.7097C333.251 30.9697 332.211 29.5797 330.751 28.5397C329.281 27.4997 327.211 26.9797 324.521 26.9797C322.021 26.9797 319.821 27.4997 317.931 28.5397C316.041 29.5797 314.561 30.9697 313.491 32.7097C312.421 34.4497 311.891 36.4197 311.891 38.6197V63.0697C311.891 64.4097 311.451 65.5297 310.561 66.4097C309.671 67.2897 308.591 67.7397 307.311 67.7397C306.031 67.7397 304.851 67.2997 303.971 66.4097C303.081 65.5297 302.641 64.4097 302.641 63.0697V24.2397C302.641 22.8997 303.081 21.7797 303.971 20.8997C304.851 20.0197 305.971 19.5697 307.311 19.5697C308.651 19.5697 309.681 20.0097 310.561 20.8997C311.441 21.7897 311.891 22.8997 311.891 24.2397V29.3697L310.241 30.2897C310.671 28.9497 311.411 27.5897 312.481 26.2097C313.551 24.8397 314.851 23.5497 316.371 22.3597C317.901 21.1697 319.611 20.2197 321.501 19.5197C323.391 18.8197 325.411 18.4697 327.541 18.4697H327.551Z" fill="#222222"/>
<path d="M379.201 68.66C374.131 68.66 369.741 67.61 366.011 65.5C362.291 63.39 359.401 60.49 357.361 56.8C355.311 53.11 354.291 48.88 354.291 44.12C354.291 38.75 355.371 34.15 357.541 30.34C359.711 26.52 362.531 23.59 366.011 21.55C369.491 19.51 373.181 18.48 377.091 18.48C380.081 18.48 382.921 19.08 385.611 20.27C388.301 21.46 390.691 23.11 392.801 25.21C394.911 27.32 396.571 29.79 397.791 32.63C399.011 35.47 399.651 38.57 399.711 41.92C399.651 43.14 399.161 44.15 398.241 44.94C397.321 45.73 396.261 46.13 395.031 46.13H359.411L357.211 38.35H391.641L389.901 40V37.71C389.721 35.57 388.981 33.71 387.701 32.12C386.421 30.53 384.851 29.28 382.981 28.37C381.121 27.45 379.151 27 377.071 27C375.241 27 373.481 27.29 371.801 27.87C370.121 28.45 368.621 29.38 367.311 30.66C366.001 31.94 364.961 33.64 364.201 35.74C363.441 37.85 363.061 40.46 363.061 43.57C363.061 46.93 363.761 49.86 365.171 52.36C366.571 54.86 368.471 56.8 370.851 58.18C373.231 59.55 375.851 60.24 378.731 60.24C380.991 60.24 382.831 60.01 384.271 59.55C385.701 59.09 386.931 58.53 387.931 57.86C388.941 57.19 389.811 56.55 390.541 55.94C391.461 55.39 392.341 55.12 393.201 55.12C394.361 55.12 395.311 55.5 396.041 56.27C396.771 57.03 397.141 57.93 397.141 58.97C397.141 60.31 396.471 61.53 395.131 62.63C393.481 64.22 391.211 65.62 388.311 66.84C385.411 68.06 382.371 68.67 379.201 68.67V68.66Z" fill="#222222"/>
<path d="M410.061 19.3C411.591 19.3 412.841 19.94 413.811 21.22L445.041 60.6C445.711 61.39 446.051 62.31 446.051 63.35C446.051 64.57 445.561 65.64 444.591 66.56C443.611 67.48 442.541 67.93 441.381 67.93C439.911 67.93 438.661 67.29 437.631 66.01L406.401 26.72C405.731 25.87 405.391 24.95 405.391 23.97C405.391 22.63 405.861 21.51 406.811 20.63C407.761 19.75 408.841 19.3 410.061 19.3ZM410.151 67.93C409.111 67.93 408.101 67.53 407.131 66.74C406.151 65.95 405.661 64.97 405.661 63.81C405.661 62.77 406.031 61.83 406.761 60.97L421.321 42.93L425.991 50.53L413.811 66.01C412.831 67.29 411.611 67.93 410.151 67.93ZM441.291 19.3C442.571 19.3 443.621 19.71 444.451 20.54C445.281 21.37 445.691 22.33 445.691 23.42C445.691 23.91 445.611 24.41 445.461 24.93C445.311 25.45 445.021 25.95 444.591 26.44L430.211 44.39L425.361 37.61L437.631 21.4C438.671 20 439.891 19.29 441.291 19.29V19.3Z" fill="#222222"/>
<path d="M500.54 43.6599C500.54 48.5399 499.47 52.8599 497.33 56.6199C495.19 60.3699 492.29 63.3199 488.63 65.4599C484.97 67.5999 480.85 68.6698 476.27 68.6698C471.69 68.6698 467.57 67.5999 463.91 65.4599C460.25 63.3199 457.33 60.3798 455.16 56.6199C452.99 52.8699 451.91 48.5499 451.91 43.6599C451.91 38.7699 452.99 34.3698 455.16 30.6098C457.33 26.8598 460.24 23.8999 463.91 21.7299C467.57 19.5599 471.69 18.4799 476.27 18.4799C480.85 18.4799 484.97 19.5599 488.63 21.7299C492.29 23.8999 495.19 26.8598 497.33 30.6098C499.47 34.3598 500.54 38.7099 500.54 43.6599ZM464.18 13.7098C462.96 13.7098 461.95 13.2398 461.16 12.2898C460.37 11.3398 460 10.0198 460.06 8.30984C460.24 6.29984 461.19 4.53985 462.9 3.03985C464.61 1.53985 467.11 0.79985 470.41 0.79985C471.81 0.79985 473.13 1.10985 474.35 1.71985C475.57 2.32985 476.73 2.99985 477.83 3.72985C478.93 4.45985 479.95 5.11984 480.9 5.69984C481.85 6.27984 482.72 6.56985 483.51 6.56985C484.24 6.56985 484.81 6.35985 485.2 5.92985C485.6 5.49985 485.76 4.88985 485.7 4.09985C485.39 2.93985 485.55 2.01985 486.16 1.34985C486.77 0.679846 487.56 0.339844 488.54 0.339844C489.82 0.339844 490.83 0.80985 491.56 1.75985C492.29 2.70985 492.66 3.99985 492.66 5.64985C492.54 6.80985 492.14 7.97985 491.47 9.17985C490.8 10.3698 489.78 11.3599 488.4 12.1599C487.03 12.9499 485.24 13.3498 483.04 13.3498C481.88 13.3498 480.67 13.0599 479.42 12.4799C478.17 11.8999 476.93 11.2398 475.71 10.5098C474.49 9.77985 473.34 9.11985 472.28 8.53985C471.21 7.95985 470.25 7.66985 469.4 7.66985C468.73 7.66985 468.15 7.86985 467.66 8.25985C467.17 8.65985 466.96 9.24985 467.02 10.0499C467.32 11.1499 467.16 12.0298 466.52 12.7098C465.88 13.3798 465.1 13.7198 464.19 13.7198L464.18 13.7098ZM491.38 43.6599C491.38 40.2999 490.71 37.3899 489.37 34.9099C488.03 32.4398 486.21 30.4998 483.92 29.0998C481.63 27.6998 479.08 26.9898 476.27 26.9898C473.46 26.9898 470.9 27.6898 468.58 29.0998C466.26 30.5098 464.43 32.4398 463.09 34.9099C461.75 37.3799 461.08 40.2999 461.08 43.6599C461.08 47.0199 461.75 49.7698 463.09 52.2698C464.43 54.7698 466.26 56.7298 468.58 58.1298C470.9 59.5398 473.46 60.2399 476.27 60.2399C479.08 60.2399 481.63 59.5398 483.92 58.1298C486.21 56.7298 488.03 54.7698 489.37 52.2698C490.71 49.7698 491.38 46.8999 491.38 43.6599Z" fill="#222222"/>
<path d="M533.32 68.66C528.25 68.66 523.86 67.61 520.13 65.5C516.41 63.39 513.52 60.49 511.48 56.8C509.43 53.11 508.41 48.88 508.41 44.12C508.41 38.75 509.49 34.15 511.66 30.34C513.83 26.52 516.65 23.59 520.13 21.55C523.61 19.51 527.3 18.48 531.21 18.48C534.2 18.48 537.04 19.08 539.73 20.27C542.42 21.46 544.81 23.11 546.92 25.21C549.03 27.32 550.69 29.79 551.91 32.63C553.13 35.47 553.77 38.57 553.83 41.92C553.77 43.14 553.28 44.15 552.36 44.94C551.44 45.73 550.38 46.13 549.15 46.13H513.53L511.33 38.35H545.76L544.02 40V37.71C543.84 35.57 543.1 33.71 541.82 32.12C540.54 30.53 538.97 29.28 537.1 28.37C535.24 27.45 533.27 27 531.19 27C529.36 27 527.6 27.29 525.92 27.87C524.24 28.45 522.74 29.38 521.43 30.66C520.12 31.94 519.08 33.64 518.32 35.74C517.56 37.85 517.18 40.46 517.18 43.57C517.18 46.93 517.88 49.86 519.29 52.36C520.69 54.86 522.59 56.8 524.97 58.18C527.35 59.55 529.97 60.24 532.85 60.24C535.11 60.24 536.95 60.01 538.39 59.55C539.82 59.09 541.05 58.53 542.05 57.86C543.06 57.19 543.93 56.55 544.66 55.94C545.58 55.39 546.46 55.12 547.32 55.12C548.48 55.12 549.43 55.5 550.16 56.27C550.89 57.03 551.26 57.93 551.26 58.97C551.26 60.31 550.59 61.53 549.25 62.63C547.6 64.22 545.33 65.62 542.43 66.84C539.53 68.06 536.49 68.67 533.32 68.67V68.66Z" fill="#222222"/>
<path d="M561.341 60.23C560.791 59.38 560.551 58.38 560.611 57.25C560.671 56.12 561.311 55.16 562.531 54.37C563.381 53.82 564.281 53.59 565.231 53.68C566.181 53.77 567.081 54.25 567.931 55.1C569.641 56.99 571.551 58.49 573.651 59.59C575.761 60.69 578.301 61.24 581.301 61.24C582.521 61.18 583.771 60.98 585.051 60.65C586.331 60.32 587.431 59.7 588.351 58.82C589.271 57.94 589.721 56.64 589.721 54.93C589.721 53.4 589.231 52.2 588.251 51.31C587.271 50.43 585.991 49.68 584.401 49.07C582.811 48.46 581.071 47.91 579.181 47.42C577.231 46.87 575.271 46.26 573.321 45.59C571.371 44.92 569.581 44.05 567.961 42.98C566.341 41.91 565.041 40.52 564.071 38.81C563.091 37.1 562.601 35 562.601 32.49C562.601 29.62 563.391 27.15 564.981 25.07C566.571 22.99 568.671 21.38 571.301 20.22C573.921 19.06 576.731 18.48 579.721 18.48C581.551 18.48 583.441 18.71 585.401 19.17C587.351 19.63 589.251 20.35 591.081 21.32C592.911 22.3 594.501 23.58 595.841 25.17C596.451 25.96 596.801 26.91 596.891 28.01C596.981 29.11 596.481 30.12 595.381 31.03C594.651 31.64 593.761 31.9 592.721 31.81C591.681 31.72 590.831 31.37 590.161 30.76C589.001 29.29 587.501 28.17 585.671 27.37C583.841 26.58 581.761 26.18 579.441 26.18C578.281 26.18 577.071 26.33 575.821 26.64C574.571 26.95 573.511 27.53 572.661 28.38C571.811 29.23 571.381 30.49 571.381 32.13C571.381 33.66 571.881 34.88 572.891 35.79C573.901 36.71 575.231 37.47 576.871 38.08C578.521 38.69 580.321 39.24 582.271 39.73C584.161 40.22 586.041 40.8 587.901 41.47C589.761 42.14 591.441 43.01 592.941 44.08C594.441 45.15 595.661 46.52 596.601 48.2C597.551 49.88 598.021 52 598.021 54.56C598.021 57.55 597.151 60.1 595.411 62.21C593.671 64.32 591.471 65.92 588.821 67.02C586.171 68.12 583.371 68.67 580.441 68.67C576.961 68.67 573.491 68.04 570.051 66.79C566.601 65.54 563.691 63.36 561.301 60.24L561.341 60.23Z" fill="#222222"/>
<path d="M208.69 152.78C204.29 152.78 200.39 152.19 196.97 150.99C193.55 149.8 190.28 147.8 187.17 144.99C186.5 144.44 185.99 143.82 185.66 143.11C185.32 142.41 185.16 141.69 185.16 140.96C185.16 139.8 185.59 138.76 186.44 137.85C187.29 136.93 188.36 136.48 189.65 136.48C190.63 136.48 191.54 136.82 192.4 137.49C194.72 139.63 197.15 141.24 199.68 142.34C202.21 143.44 205.19 143.99 208.61 143.99C211.05 143.99 213.3 143.59 215.34 142.8C217.38 142.01 219.02 140.94 220.24 139.59C221.46 138.25 222.07 136.69 222.07 134.92C222.01 132.72 221.37 130.92 220.15 129.52C218.93 128.12 217.14 126.93 214.79 125.95C212.44 124.97 209.62 124.18 206.32 123.57C203.27 122.96 200.52 122.17 198.08 121.19C195.64 120.21 193.58 118.98 191.9 117.48C190.22 115.98 188.92 114.2 188.01 112.12C187.09 110.04 186.64 107.66 186.64 104.98C186.64 101.26 187.62 98.0396 189.57 95.3196C191.52 92.5996 194.18 90.5096 197.54 89.0496C200.9 87.5896 204.68 86.8496 208.9 86.8496C212.75 86.8496 216.35 87.4396 219.71 88.6396C223.07 89.8296 225.78 91.4296 227.86 93.4496C229.33 94.7296 230.06 96.1096 230.06 97.5696C230.06 98.7296 229.62 99.7696 228.73 100.68C227.84 101.6 226.82 102.05 225.66 102.05C224.8 102.05 224.07 101.81 223.46 101.32C222.48 100.28 221.17 99.3496 219.52 98.5296C217.87 97.7096 216.12 97.0196 214.25 96.4696C212.39 95.9196 210.6 95.6496 208.89 95.6496C206.14 95.6496 203.79 96.0296 201.84 96.7896C199.89 97.5496 198.39 98.5896 197.35 99.8996C196.31 101.21 195.79 102.78 195.79 104.62C195.79 106.7 196.39 108.39 197.58 109.7C198.77 111.01 200.43 112.08 202.57 112.91C204.71 113.73 207.15 114.48 209.9 115.15C213.26 115.88 216.26 116.71 218.92 117.62C221.58 118.54 223.82 119.71 225.65 121.15C227.48 122.58 228.89 124.37 229.86 126.51C230.84 128.65 231.33 131.3 231.33 134.48C231.33 138.14 230.29 141.35 228.22 144.1C226.14 146.85 223.41 148.98 220.02 150.51C216.63 152.04 212.86 152.8 208.71 152.8L208.69 152.78Z" fill="#222222"/>
<path d="M277.461 103.69C278.741 103.69 279.831 104.13 280.711 105.02C281.591 105.91 282.041 107.02 282.041 108.36V132.44C282.041 138.79 280.271 143.75 276.731 147.32C273.191 150.89 268.181 152.68 261.711 152.68C255.241 152.68 250.251 150.89 246.741 147.32C243.231 143.75 241.471 138.79 241.471 132.44V108.36C241.471 107.02 241.911 105.9 242.801 105.02C243.681 104.14 244.801 103.69 246.141 103.69C247.481 103.69 248.511 104.13 249.391 105.02C250.271 105.91 250.721 107.02 250.721 108.36V132.44C250.721 136.41 251.651 139.37 253.511 141.32C255.371 143.27 258.101 144.25 261.711 144.25C265.321 144.25 268.131 143.27 270.001 141.32C271.861 139.37 272.791 136.41 272.791 132.44V108.36C272.791 107.02 273.231 105.9 274.121 105.02C275.001 104.14 276.121 103.69 277.461 103.69Z" fill="#222222"/>
<path d="M291.93 144.35C291.38 143.5 291.14 142.5 291.2 141.37C291.26 140.24 291.9 139.28 293.12 138.49C293.97 137.94 294.87 137.71 295.82 137.8C296.77 137.89 297.67 138.36 298.52 139.22C300.23 141.11 302.14 142.61 304.24 143.71C306.35 144.81 308.89 145.36 311.89 145.36C313.11 145.3 314.36 145.1 315.64 144.76C316.92 144.43 318.02 143.81 318.94 142.93C319.86 142.05 320.31 140.75 320.31 139.04C320.31 137.52 319.82 136.31 318.84 135.42C317.86 134.54 316.58 133.79 314.99 133.18C313.4 132.57 311.66 132.02 309.77 131.53C307.82 130.98 305.86 130.37 303.91 129.7C301.96 129.03 300.17 128.16 298.55 127.09C296.93 126.02 295.63 124.63 294.66 122.92C293.68 121.21 293.19 119.11 293.19 116.6C293.19 113.73 293.98 111.26 295.57 109.18C297.16 107.11 299.26 105.49 301.89 104.33C304.51 103.17 307.32 102.59 310.31 102.59C312.14 102.59 314.03 102.82 315.99 103.28C317.94 103.74 319.84 104.46 321.67 105.43C323.5 106.4 325.09 107.69 326.43 109.28C327.04 110.07 327.39 111.02 327.48 112.12C327.57 113.22 327.07 114.23 325.97 115.14C325.24 115.75 324.35 116.01 323.31 115.92C322.27 115.83 321.42 115.48 320.75 114.87C319.59 113.41 318.09 112.28 316.26 111.48C314.43 110.69 312.35 110.29 310.03 110.29C308.87 110.29 307.66 110.44 306.41 110.75C305.16 111.06 304.1 111.64 303.25 112.49C302.4 113.34 301.97 114.6 301.97 116.24C301.97 117.77 302.47 118.99 303.48 119.9C304.49 120.81 305.82 121.58 307.46 122.19C309.11 122.8 310.91 123.35 312.86 123.84C314.75 124.33 316.63 124.91 318.49 125.58C320.35 126.25 322.03 127.12 323.53 128.19C325.03 129.26 326.25 130.63 327.19 132.31C328.14 133.99 328.61 136.11 328.61 138.67C328.61 141.66 327.74 144.21 326 146.32C324.26 148.43 322.06 150.03 319.41 151.13C316.75 152.23 313.96 152.78 311.03 152.78C307.55 152.78 304.08 152.15 300.64 150.9C297.19 149.65 294.28 147.47 291.89 144.35H291.93Z" fill="#222222"/>
<path d="M337.9 104.24H359.42C360.64 104.24 361.66 104.65 362.49 105.48C363.32 106.31 363.73 107.33 363.73 108.55C363.73 109.77 363.32 110.78 362.49 111.57C361.67 112.36 360.64 112.76 359.42 112.76H337.9C336.68 112.76 335.66 112.35 334.83 111.52C334.01 110.7 333.59 109.67 333.59 108.45C333.59 107.23 334 106.22 334.83 105.43C335.65 104.64 336.68 104.24 337.9 104.24ZM347.52 92.3401C348.86 92.3401 349.96 92.7801 350.82 93.6701C351.67 94.5601 352.1 95.6701 352.1 97.0101V139.5C352.1 140.6 352.28 141.49 352.65 142.16C353.02 142.83 353.52 143.29 354.16 143.53C354.8 143.78 355.46 143.9 356.13 143.9C356.8 143.9 357.4 143.78 357.92 143.53C358.44 143.29 359.06 143.16 359.8 143.16C360.54 143.16 361.2 143.5 361.81 144.17C362.42 144.84 362.73 145.76 362.73 146.92C362.73 148.38 361.94 149.58 360.35 150.49C358.76 151.41 357.05 151.86 355.22 151.86C354.18 151.86 352.96 151.77 351.56 151.58C350.15 151.4 348.8 150.94 347.48 150.21C346.17 149.48 345.07 148.3 344.18 146.68C343.29 145.06 342.85 142.79 342.85 139.86V97.0001C342.85 95.6601 343.31 94.5401 344.22 93.6601C345.14 92.7801 346.23 92.3301 347.52 92.3301V92.3401Z" fill="#222222"/>
<path d="M395.871 152.78C390.801 152.78 386.411 151.73 382.681 149.62C378.961 147.51 376.071 144.62 374.031 140.92C371.981 137.23 370.961 133 370.961 128.24C370.961 122.87 372.041 118.27 374.211 114.46C376.381 110.65 379.201 107.71 382.681 105.67C386.161 103.63 389.851 102.6 393.761 102.6C396.751 102.6 399.591 103.19 402.281 104.39C404.971 105.58 407.361 107.23 409.471 109.34C411.581 111.45 413.241 113.92 414.461 116.76C415.681 119.6 416.321 122.7 416.381 126.05C416.321 127.27 415.831 128.28 414.911 129.07C413.991 129.86 412.931 130.26 411.701 130.26H376.081L373.881 122.48H408.311L406.571 124.13V121.84C406.391 119.7 405.651 117.84 404.371 116.25C403.091 114.66 401.521 113.41 399.651 112.5C397.791 111.58 395.821 111.13 393.741 111.13C391.911 111.13 390.151 111.42 388.471 112C386.791 112.58 385.291 113.51 383.981 114.79C382.671 116.07 381.631 117.77 380.871 119.87C380.111 121.98 379.731 124.59 379.731 127.7C379.731 131.06 380.431 133.99 381.841 136.49C383.241 138.99 385.141 140.93 387.521 142.3C389.901 143.67 392.521 144.36 395.401 144.36C397.661 144.36 399.501 144.13 400.941 143.67C402.371 143.21 403.601 142.65 404.601 141.98C405.611 141.31 406.481 140.67 407.211 140.06C408.131 139.51 409.011 139.24 409.871 139.24C411.031 139.24 411.981 139.62 412.711 140.38C413.441 141.14 413.811 142.04 413.811 143.08C413.811 144.42 413.141 145.64 411.801 146.74C410.151 148.33 407.881 149.73 404.981 150.95C402.081 152.17 399.041 152.78 395.871 152.78Z" fill="#222222"/>
<path d="M451.551 102.59C455.881 102.59 459.241 103.49 461.621 105.29C464.001 107.09 465.661 109.5 466.611 112.52C467.561 115.54 468.031 118.92 468.031 122.64V147.18C468.031 148.52 467.591 149.64 466.701 150.52C465.811 151.41 464.731 151.85 463.451 151.85C462.171 151.85 460.991 151.41 460.111 150.52C459.221 149.64 458.781 148.52 458.781 147.18V122.73C458.781 120.53 458.471 118.56 457.861 116.82C457.251 115.08 456.211 113.69 454.751 112.65C453.281 111.61 451.211 111.09 448.521 111.09C446.021 111.09 443.821 111.61 441.931 112.65C440.041 113.69 438.561 115.08 437.491 116.82C436.421 118.56 435.891 120.53 435.891 122.73V147.18C435.891 148.52 435.451 149.64 434.561 150.52C433.671 151.41 432.591 151.85 431.311 151.85C430.031 151.85 428.851 151.41 427.971 150.52C427.081 149.64 426.641 148.52 426.641 147.18V108.35C426.641 107.01 427.081 105.89 427.971 105.01C428.851 104.13 429.971 103.68 431.311 103.68C432.651 103.68 433.681 104.12 434.561 105.01C435.441 105.9 435.891 107.01 435.891 108.35V113.48L434.241 114.4C434.671 113.06 435.411 111.7 436.481 110.32C437.551 108.95 438.851 107.66 440.371 106.47C441.901 105.28 443.611 104.33 445.501 103.63C447.391 102.93 449.411 102.58 451.541 102.58L451.551 102.59Z" fill="#222222"/>
<path d="M480.121 104.24H501.641C502.861 104.24 503.881 104.65 504.711 105.48C505.541 106.31 505.951 107.33 505.951 108.55C505.951 109.77 505.541 110.78 504.711 111.57C503.891 112.36 502.861 112.76 501.641 112.76H480.121C478.901 112.76 477.881 112.35 477.051 111.52C476.231 110.7 475.811 109.67 475.811 108.45C475.811 107.23 476.221 106.22 477.051 105.43C477.871 104.64 478.901 104.24 480.121 104.24ZM489.741 92.3401C491.081 92.3401 492.181 92.7801 493.041 93.6701C493.891 94.5601 494.321 95.6701 494.321 97.0101V139.5C494.321 140.6 494.501 141.49 494.871 142.16C495.241 142.83 495.741 143.29 496.381 143.53C497.021 143.78 497.681 143.9 498.351 143.9C499.021 143.9 499.621 143.78 500.141 143.53C500.661 143.29 501.281 143.16 502.021 143.16C502.761 143.16 503.421 143.5 504.031 144.17C504.641 144.84 504.951 145.76 504.951 146.92C504.951 148.38 504.161 149.58 502.571 150.49C500.981 151.41 499.271 151.86 497.441 151.86C496.401 151.86 495.181 151.77 493.781 151.58C492.371 151.4 491.021 150.94 489.701 150.21C488.391 149.48 487.291 148.3 486.401 146.68C485.511 145.06 485.071 142.79 485.071 139.86V97.0001C485.071 95.6601 485.531 94.5401 486.441 93.6601C487.361 92.7801 488.451 92.3301 489.741 92.3301V92.3401Z" fill="#222222"/>
<path d="M555.571 102.96C556.911 102.96 558.011 103.4 558.871 104.29C559.721 105.18 560.151 106.29 560.151 107.63V147.19C560.151 148.53 559.721 149.65 558.871 150.53C558.011 151.42 556.921 151.86 555.571 151.86C554.221 151.86 553.131 151.42 552.271 150.53C551.411 149.65 550.991 148.53 550.991 147.19V140.6L552.911 140.97C552.911 142.01 552.471 143.21 551.581 144.59C550.691 145.96 549.491 147.26 547.961 148.48C546.431 149.7 544.631 150.72 542.561 151.55C540.481 152.37 538.261 152.79 535.871 152.79C531.661 152.79 527.871 151.71 524.521 149.54C521.161 147.37 518.511 144.4 516.551 140.61C514.601 136.82 513.621 132.52 513.621 127.7C513.621 122.88 514.601 118.41 516.551 114.65C518.501 110.9 521.141 107.95 524.471 105.81C527.801 103.67 531.481 102.6 535.501 102.6C538.121 102.6 540.551 103.03 542.781 103.88C545.011 104.74 546.951 105.84 548.601 107.18C550.251 108.52 551.531 109.94 552.451 111.44C553.371 112.94 553.821 114.36 553.821 115.7L550.981 115.98V107.65C550.981 106.37 551.411 105.27 552.261 104.35C553.111 103.43 554.211 102.98 555.561 102.98L555.571 102.96ZM536.891 144.35C539.761 144.35 542.291 143.62 544.491 142.15C546.691 140.68 548.401 138.69 549.621 136.15C550.841 133.62 551.451 130.79 551.451 127.68C551.451 124.57 550.841 121.74 549.621 119.21C548.401 116.68 546.691 114.69 544.491 113.26C542.291 111.83 539.761 111.11 536.891 111.11C534.021 111.11 531.591 111.83 529.431 113.26C527.261 114.7 525.551 116.66 524.301 119.17C523.051 121.67 522.421 124.51 522.421 127.69C522.421 130.87 523.051 133.63 524.301 136.16C525.551 138.69 527.261 140.69 529.431 142.16C531.601 143.62 534.081 144.36 536.891 144.36V144.35ZM537.441 100.3C536.951 100.3 536.401 100.07 535.791 99.6099C535.181 99.1499 534.901 98.5299 534.971 97.7299C534.971 97.2399 535.151 96.7199 535.521 96.1699L540.921 87.0099C541.351 86.2199 541.931 85.4999 542.661 84.8599C543.391 84.2199 544.251 83.8999 545.221 83.8999C546.691 83.8999 547.781 84.2799 548.521 85.0399C549.251 85.7999 549.591 86.7699 549.531 87.9199C549.471 88.4699 549.321 89.0199 549.071 89.5699C548.831 90.1199 548.491 90.6699 548.061 91.2199L541.101 98.8199C540.551 99.3699 539.951 99.7499 539.311 99.9599C538.671 100.17 538.041 100.28 537.431 100.28L537.441 100.3Z" fill="#222222"/>
<path d="M572.97 103.23C573.89 103.23 574.76 103.48 575.58 103.96C576.4 104.45 577 105.18 577.37 106.16L591.75 139.4L590.01 140.22L604.57 106.25C605.42 104.23 606.8 103.26 608.69 103.32C609.91 103.32 610.93 103.72 611.76 104.51C612.58 105.3 613 106.28 613 107.44C613 107.81 612.94 108.2 612.82 108.63C612.7 109.06 612.55 109.42 612.36 109.73L594.96 148.92C594.17 150.75 592.85 151.73 591.02 151.85C590.1 151.97 589.19 151.77 588.27 151.25C587.35 150.73 586.68 149.95 586.26 148.92L568.95 109.82C568.83 109.52 568.71 109.16 568.58 108.77C568.46 108.37 568.4 107.9 568.4 107.35C568.4 106.43 568.81 105.52 569.64 104.6C570.46 103.68 571.58 103.23 572.98 103.23H572.97Z" fill="#222222"/>
<path d="M644.31 152.78C639.24 152.78 634.85 151.73 631.12 149.62C627.4 147.51 624.51 144.62 622.47 140.92C620.42 137.23 619.4 133 619.4 128.24C619.4 122.87 620.48 118.27 622.65 114.46C624.82 110.65 627.64 107.71 631.12 105.67C634.6 103.63 638.29 102.6 642.2 102.6C645.19 102.6 648.03 103.19 650.72 104.39C653.41 105.58 655.8 107.23 657.91 109.34C660.02 111.45 661.68 113.92 662.9 116.76C664.12 119.6 664.76 122.7 664.82 126.05C664.76 127.27 664.27 128.28 663.35 129.07C662.43 129.86 661.37 130.26 660.14 130.26H624.52L622.32 122.48H656.75L655.01 124.13V121.84C654.83 119.7 654.09 117.84 652.81 116.25C651.53 114.66 649.96 113.41 648.09 112.5C646.23 111.58 644.26 111.13 642.18 111.13C640.35 111.13 638.59 111.42 636.91 112C635.23 112.58 633.73 113.51 632.42 114.79C631.11 116.07 630.07 117.77 629.31 119.87C628.55 121.98 628.17 124.59 628.17 127.7C628.17 131.06 628.87 133.99 630.28 136.49C631.68 138.99 633.58 140.93 635.96 142.3C638.34 143.67 640.96 144.36 643.84 144.36C646.1 144.36 647.94 144.13 649.38 143.67C650.81 143.21 652.04 142.65 653.04 141.98C654.05 141.31 654.92 140.67 655.65 140.06C656.57 139.51 657.45 139.24 658.31 139.24C659.47 139.24 660.42 139.62 661.15 140.38C661.88 141.14 662.25 142.04 662.25 143.08C662.25 144.42 661.58 145.64 660.24 146.74C658.59 148.33 656.32 149.73 653.42 150.95C650.52 152.17 647.48 152.78 644.31 152.78Z" fill="#222222"/>
<path d="M679.11 97.28C677.34 97.28 676.06 96.96 675.26 96.32C674.47 95.68 674.07 94.6 674.07 93.07V91.61C674.07 90.08 674.5 89.02 675.35 88.4C676.2 87.79 677.49 87.48 679.2 87.48C681.03 87.48 682.34 87.8 683.14 88.44C683.93 89.08 684.33 90.13 684.33 91.6V93.06C684.33 94.65 683.92 95.75 683.09 96.36C682.27 96.97 680.94 97.28 679.11 97.28ZM683.78 147.19C683.78 148.53 683.35 149.65 682.5 150.53C681.64 151.42 680.55 151.86 679.2 151.86C677.85 151.86 676.76 151.42 675.9 150.53C675.04 149.65 674.62 148.53 674.62 147.19V108C674.62 106.66 675.06 105.54 675.95 104.66C676.83 103.78 677.92 103.33 679.2 103.33C680.48 103.33 681.64 103.77 682.5 104.66C683.35 105.55 683.78 106.66 683.78 108V147.19Z" fill="#222222"/>
<path d="M693.3 144.35C692.75 143.5 692.51 142.5 692.57 141.37C692.63 140.24 693.27 139.28 694.49 138.49C695.34 137.94 696.24 137.71 697.19 137.8C698.14 137.89 699.04 138.36 699.89 139.22C701.6 141.11 703.51 142.61 705.61 143.71C707.72 144.81 710.26 145.36 713.26 145.36C714.48 145.3 715.73 145.1 717.01 144.76C718.29 144.43 719.39 143.81 720.31 142.93C721.23 142.05 721.68 140.75 721.68 139.04C721.68 137.52 721.19 136.31 720.21 135.42C719.23 134.54 717.95 133.79 716.36 133.18C714.77 132.57 713.03 132.02 711.14 131.53C709.19 130.98 707.23 130.37 705.28 129.7C703.33 129.03 701.54 128.16 699.92 127.09C698.3 126.02 697 124.63 696.03 122.92C695.05 121.21 694.56 119.11 694.56 116.6C694.56 113.73 695.35 111.26 696.94 109.18C698.53 107.11 700.63 105.49 703.26 104.33C705.88 103.17 708.69 102.59 711.68 102.59C713.51 102.59 715.4 102.82 717.36 103.28C719.31 103.74 721.21 104.46 723.04 105.43C724.87 106.4 726.46 107.69 727.8 109.28C728.41 110.07 728.76 111.02 728.85 112.12C728.94 113.22 728.44 114.23 727.34 115.14C726.61 115.75 725.72 116.01 724.68 115.92C723.64 115.83 722.79 115.48 722.12 114.87C720.96 113.41 719.46 112.28 717.63 111.48C715.8 110.69 713.72 110.29 711.4 110.29C710.24 110.29 709.03 110.44 707.78 110.75C706.53 111.06 705.47 111.64 704.62 112.49C703.77 113.34 703.34 114.6 703.34 116.24C703.34 117.77 703.84 118.99 704.85 119.9C705.86 120.81 707.19 121.58 708.83 122.19C710.48 122.8 712.28 123.35 714.23 123.84C716.12 124.33 718 124.91 719.86 125.58C721.72 126.25 723.4 127.12 724.9 128.19C726.4 129.26 727.62 130.63 728.56 132.31C729.51 133.99 729.98 136.11 729.98 138.67C729.98 141.66 729.11 144.21 727.37 146.32C725.63 148.43 723.43 150.03 720.78 151.13C718.12 152.23 715.33 152.78 712.4 152.78C708.92 152.78 705.45 152.15 702.01 150.9C698.56 149.65 695.65 147.47 693.26 144.35H693.3Z" fill="#222222"/>
<path d="M109.69 154.15H0.5V101.8C0.5 81 13.55 63.57 33.76 57.41C46.38 53.55 59.16 55.15 69.57 61.34C79.82 55.46 92.22 53.84 104.7 57.3C125.54 63.09 139 80.72 139 102.23H127.46C127.46 82.58 113.54 71.74 101.61 68.43C95.18 66.65 87.1 66.47 79.47 69.42C80.96 71.06 82.36 72.83 83.64 74.73C84.55 76.09 85.42 77.51 86.25 78.99C97.59 99.41 89.21 109.46 85.09 112.84C76.86 119.56 63.17 119.05 54.57 111.7C51.22 108.84 41.16 98.01 52.34 78.89L53 77.78C54.92 74.59 57.13 71.71 59.58 69.17C51.98 66.11 43.81 66.42 37.14 68.47C25.57 72 12.06 82.86 12.06 101.82V142.63H109.71V154.17L109.69 154.15ZM69.44 75.61C67.04 77.8 64.82 80.47 62.87 83.7L62.3 84.67C59.61 89.28 56.01 97.74 62.05 102.9C66.38 106.59 73.86 107.07 77.76 103.88C81.74 100.63 81.14 93.6 76.14 84.58C75.48 83.39 74.78 82.25 74.04 81.16C72.61 79.05 71.07 77.2 69.43 75.61H69.44Z" fill="#32C56D"/>
<path d="M43.2599 44.9901C32.0499 44.9901 22.9199 35.8601 22.9199 24.6501C22.9199 13.4401 32.0499 4.31006 43.2599 4.31006C54.4699 4.31006 63.5999 13.4401 63.5999 24.6501C63.5999 35.8601 54.4699 44.9901 43.2599 44.9901ZM43.2599 15.8501C38.4099 15.8501 34.4599 19.8001 34.4599 24.6501C34.4599 29.5001 38.4099 33.4501 43.2599 33.4501C48.1099 33.4501 52.0599 29.5001 52.0599 24.6501C52.0599 19.8001 48.1099 15.8501 43.2599 15.8501Z" fill="#32C56D"/>
<path d="M99.9201 44.9901C88.7001 44.9901 79.5801 35.8601 79.5801 24.6501C79.5801 13.4401 88.7101 4.31006 99.9201 4.31006C111.13 4.31006 120.26 13.4401 120.26 24.6501C120.26 35.8601 111.13 44.9901 99.9201 44.9901ZM99.9201 15.8501C95.0701 15.8501 91.1201 19.8001 91.1201 24.6501C91.1201 29.5001 95.0701 33.4501 99.9201 33.4501C104.77 33.4501 108.72 29.5001 108.72 24.6501C108.72 19.8001 104.77 15.8501 99.9201 15.8501Z" fill="#32C56D"/>
</svg>
