<svg width="100" height="100" viewBox="0 0 100 100" fill="none" xmlns="http://www.w3.org/2000/svg">
<circle cx="50" cy="50" r="50" fill="black"/>
<path d="M63.4307 74.9931H27V57.5268C27 50.5869 31.3541 44.7715 38.097 42.7163C42.3076 41.4284 46.5716 41.9622 50.0448 44.0275C53.4647 42.0657 57.6019 41.5252 61.7658 42.6796C68.7189 44.6114 73.2098 50.4935 73.2098 57.6702H69.3595C69.3595 51.1141 64.7152 47.4974 60.7348 46.393C58.5895 45.7991 55.8936 45.7391 53.3479 46.7233C53.8451 47.2705 54.3122 47.8611 54.7392 48.495C55.0428 48.9487 55.3331 49.4225 55.61 49.9163C59.3936 56.7293 56.5976 60.0825 55.223 61.2102C52.4771 63.4523 47.9095 63.2821 45.0402 60.8298C43.9225 59.8756 40.566 56.2622 44.2961 49.883L44.5164 49.5126C45.1569 48.4483 45.8943 47.4874 46.7117 46.6399C44.176 45.619 41.4502 45.7224 39.2247 46.4064C35.3645 47.5841 30.8569 51.2075 30.8569 57.5334V71.1495H63.4373V74.9997L63.4307 74.9931ZM50.0015 48.7886C49.2007 49.5193 48.46 50.4101 47.8094 51.4878L47.6192 51.8114C46.7217 53.3495 45.5206 56.1722 47.5358 57.8938C48.9805 59.1249 51.4762 59.2851 52.7774 58.2207C54.1053 57.1364 53.9051 54.7909 52.2369 51.7814C52.0167 51.3844 51.7831 51.004 51.5362 50.6403C51.0591 49.9363 50.5453 49.3191 49.9981 48.7886H50.0015Z" fill="#32C56D"/>
<path d="M41.2668 38.5727C37.5266 38.5727 34.4805 35.5265 34.4805 31.7863C34.4805 28.0462 37.5266 25 41.2668 25C45.007 25 48.0531 28.0462 48.0531 31.7863C48.0531 35.5265 45.007 38.5727 41.2668 38.5727ZM41.2668 28.8503C39.6486 28.8503 38.3307 30.1682 38.3307 31.7863C38.3307 33.4045 39.6486 34.7224 41.2668 34.7224C42.885 34.7224 44.2029 33.4045 44.2029 31.7863C44.2029 30.1682 42.885 28.8503 41.2668 28.8503Z" fill="#32C56D"/>
<path d="M60.1711 38.5727C56.4276 38.5727 53.3848 35.5265 53.3848 31.7863C53.3848 28.0462 56.4309 25 60.1711 25C63.9113 25 66.9574 28.0462 66.9574 31.7863C66.9574 35.5265 63.9113 38.5727 60.1711 38.5727ZM60.1711 28.8503C58.5529 28.8503 57.235 30.1682 57.235 31.7863C57.235 33.4045 58.5529 34.7224 60.1711 34.7224C61.7893 34.7224 63.1072 33.4045 63.1072 31.7863C63.1072 30.1682 61.7893 28.8503 60.1711 28.8503Z" fill="#32C56D"/>
</svg>
